# xmcd
#
# Track frame offsets:
#	150
#	15616
#	31239
#	46788
#	60053
#	78162
#	94418
#	112138
#	126639
#	147196
#	160719
#	174894
#	191295
#	206584
#	224798
#	251025
#
# Disc length: 4440 seconds
#
# Revision: 1
# Processed by: cddbd v1.4PL0 Copyright (c) Steve Scherf et al.
# Submitted via: audiograbber 1.82.01
#
DISCID=d9115610
DTITLE=Linda Feller - Pustekuchen
DYEAR=2003
DGENRE=
TTITLE0=Pustekuchen
TTITLE1=Halt dich an mir fest
TTITLE2=Ein Haus viel schöner als zuhaus
TTITLE3=Alles so kompliziert
TTITLE4=Du bist alles (und viel mehr)
TTITLE5=Bitte nicht schon wieder Liebe
TTITLE6=Wenn du sagst good bye
TTITLE7=Ich liebe dich - Ich hasse dich
TTITLE8=Wie oft kann Liebe noch verzeihen
TTITLE9=Wir sind alle keine Engel
TTITLE10=Der Mann von deiner Frau
TTITLE11=Ich bin ich (mit dir)
TTITLE12=Am Ende der Ewigkeit
TTITLE13=Eiszeit im Sommer
TTITLE14=Ich will nen Cowboy als Mann
TTITLE15=Sciezka z danymi
EXTD=
EXTT0=
EXTT1=
EXTT2=
EXTT3=
EXTT4=
EXTT5=
EXTT6=
EXTT7=
EXTT8=
EXTT9=
EXTT10=
EXTT11=
EXTT12=
EXTT13=
EXTT14=
EXTT15=
PLAYORDER=
